<svg width="1200" height="628" viewBox="0 0 1200 628" xmlns="http://www.w3.org/2000/svg">
  <defs>
    <linearGradient id="bg" x1="0%" y1="0%" x2="100%" y2="100%">
      <stop offset="0%" stop-color="#09090B"/>
      <stop offset="100%" stop-color="#18181B"/>
    </linearGradient>
    <linearGradient id="ember" x1="0%" y1="0%" x2="100%" y2="0%">
      <stop offset="0%" stop-color="#F59E0B"/>
      <stop offset="100%" stop-color="#D97706"/>
    </linearGradient>
    <linearGradient id="ember-v" x1="0%" y1="100%" x2="0%" y2="0%">
      <stop offset="0%" stop-color="#F59E0B" stop-opacity="0.3"/>
      <stop offset="100%" stop-color="#D97706"/>
    </linearGradient>
    <linearGradient id="logo-g" x1="0%" y1="0%" x2="100%" y2="100%">
      <stop offset="0%" stop-color="#F59E0B"/>
      <stop offset="100%" stop-color="#B45309"/>
    </linearGradient>
    <filter id="glow">
      <feGaussianBlur stdDeviation="8" result="blur"/>
      <feComposite in="SourceGraphic" in2="blur" operator="over"/>
    </filter>
    <filter id="glow-lg">
      <feGaussianBlur stdDeviation="20" result="blur"/>
      <feComposite in="SourceGraphic" in2="blur" operator="over"/>
    </filter>
  </defs>

  <!-- Background -->
  <rect width="1200" height="628" fill="url(#bg)"/>

  <!-- Ambient glow behind waveform -->
  <ellipse cx="600" cy="340" rx="400" ry="100" fill="#F59E0B" opacity="0.06" filter="url(#glow-lg)"/>

  <!-- Centered waveform bars with glow -->
  <g filter="url(#glow)" transform="translate(600, 310)">
    <!-- Mirrored waveform - left side -->
    <rect x="-280" y="-35" width="10" height="70" rx="5" fill="url(#ember-v)"/>
    <rect x="-260" y="-55" width="10" height="110" rx="5" fill="url(#ember-v)"/>
    <rect x="-240" y="-75" width="10" height="150" rx="5" fill="url(#ember-v)"/>
    <rect x="-220" y="-45" width="10" height="90" rx="5" fill="url(#ember-v)"/>
    <rect x="-200" y="-85" width="10" height="170" rx="5" fill="url(#ember-v)"/>
    <rect x="-180" y="-60" width="10" height="120" rx="5" fill="url(#ember-v)"/>
    <rect x="-160" y="-95" width="10" height="190" rx="5" fill="url(#ember-v)"/>
    <rect x="-140" y="-70" width="10" height="140" rx="5" fill="url(#ember-v)"/>
    <rect x="-120" y="-50" width="10" height="100" rx="5" fill="url(#ember-v)"/>
    <rect x="-100" y="-80" width="10" height="160" rx="5" fill="url(#ember-v)"/>
    <rect x="-80" y="-100" width="10" height="200" rx="5" fill="url(#ember-v)"/>
    <rect x="-60" y="-65" width="10" height="130" rx="5" fill="url(#ember-v)"/>
    <rect x="-40" y="-90" width="10" height="180" rx="5" fill="url(#ember-v)"/>
    <rect x="-20" y="-110" width="10" height="220" rx="5" fill="url(#ember-v)"/>
    <!-- Center bars -->
    <rect x="-5" y="-120" width="10" height="240" rx="5" fill="url(#ember-v)"/>
    <!-- Right side (mirror) -->
    <rect x="10" y="-110" width="10" height="220" rx="5" fill="url(#ember-v)"/>
    <rect x="30" y="-90" width="10" height="180" rx="5" fill="url(#ember-v)"/>
    <rect x="50" y="-65" width="10" height="130" rx="5" fill="url(#ember-v)"/>
    <rect x="70" y="-100" width="10" height="200" rx="5" fill="url(#ember-v)"/>
    <rect x="90" y="-80" width="10" height="160" rx="5" fill="url(#ember-v)"/>
    <rect x="110" y="-50" width="10" height="100" rx="5" fill="url(#ember-v)"/>
    <rect x="130" y="-70" width="10" height="140" rx="5" fill="url(#ember-v)"/>
    <rect x="150" y="-95" width="10" height="190" rx="5" fill="url(#ember-v)"/>
    <rect x="170" y="-60" width="10" height="120" rx="5" fill="url(#ember-v)"/>
    <rect x="190" y="-85" width="10" height="170" rx="5" fill="url(#ember-v)"/>
    <rect x="210" y="-45" width="10" height="90" rx="5" fill="url(#ember-v)"/>
    <rect x="230" y="-75" width="10" height="150" rx="5" fill="url(#ember-v)"/>
    <rect x="250" y="-55" width="10" height="110" rx="5" fill="url(#ember-v)"/>
    <rect x="270" y="-35" width="10" height="70" rx="5" fill="url(#ember-v)"/>
  </g>

  <!-- Headline -->
  <text x="600" y="120" text-anchor="middle" font-family="system-ui, -apple-system, sans-serif" font-size="52" font-weight="800" fill="#FAFAFA" letter-spacing="-1">
    Stop guessing how sounds are made
  </text>

  <!-- Subheadline -->
  <text x="600" y="170" text-anchor="middle" font-family="system-ui, -apple-system, sans-serif" font-size="26" fill="#A1A1AA">
    Upload any audio. Get the exact synth settings. Download the preset.
  </text>

  <!-- Bottom bar -->
  <rect x="0" y="560" width="1200" height="68" fill="#18181B"/>
  <line x1="0" y1="560" x2="1200" y2="560" stroke="#27272A" stroke-width="1"/>

  <!-- Logo icon in bottom bar -->
  <g transform="translate(430, 572)">
    <rect width="36" height="36" rx="7" fill="url(#logo-g)"/>
    <g stroke="white" stroke-width="2" stroke-linecap="round" fill="none">
      <line x1="8" y1="14" x2="8" y2="22"/>
      <line x1="12" y1="10" x2="12" y2="26"/>
      <line x1="16" y1="7" x2="16" y2="29"/>
      <line x1="20" y1="11" x2="20" y2="25"/>
      <line x1="24" y1="13" x2="24" y2="23"/>
      <line x1="28" y1="15" x2="28" y2="21"/>
    </g>
  </g>

  <!-- App name -->
  <text x="480" y="598" font-family="system-ui, -apple-system, sans-serif" font-size="24" font-weight="700" fill="url(#ember)">
    soundsauce.app
  </text>

  <!-- Free badge -->
  <rect x="680" y="575" width="80" height="30" rx="15" fill="#27272A"/>
  <text x="720" y="596" text-anchor="middle" font-family="system-ui, -apple-system, sans-serif" font-size="14" font-weight="600" fill="#F59E0B">
    Free
  </text>
</svg>
